<svg width="320" height="46" viewBox="0 0 320 46" fill="none" xmlns="http://www.w3.org/2000/svg">
<path d="M217.606 28.4274C216.855 27.0981 215.82 26.0955 214.504 25.413C213.824 25.0596 213.086 24.8039 212.296 24.6439C212.954 24.4927 213.564 24.266 214.13 23.9637C215.321 23.3323 216.25 22.4387 216.928 21.285C217.601 20.1268 217.938 18.7619 217.938 17.1769C217.938 14.3938 217.011 12.2108 215.162 10.6258C213.313 9.04529 210.759 8.25391 207.498 8.25391H187.105V42.9056H208.157C210.321 42.9056 212.192 42.5122 213.777 41.7208C215.358 40.9272 216.582 39.7979 217.443 38.3241C218.306 36.8547 218.737 35.1363 218.737 33.1734C218.737 31.3395 218.363 29.759 217.608 28.4274H217.606ZM192.041 12.6687H207.498C209.194 12.6687 210.517 13.1222 211.472 14.0225C212.428 14.9251 212.905 16.1499 212.905 17.7015C212.905 19.2532 212.421 20.4847 211.45 21.405C210.477 22.3209 209.145 22.7788 207.454 22.7788H192.041V12.6687ZM212.06 37.0192C210.995 38.0017 209.553 38.493 207.734 38.493H192.041V27.0536H207.734C209.553 27.0536 210.995 27.5916 212.06 28.6653C213.126 29.7412 213.658 31.1661 213.658 32.9378C213.658 34.7095 213.126 36.0411 212.06 37.0214V37.0192Z" fill="#21244D"/>
<path d="M308.266 24.7617L319.811 8.25391H314.071L303.9 22.8077H294.647V8.25391H289.72V42.9056H294.647V27.1559H303.964L314.197 42.9056H320L308.266 24.7617Z" fill="#21244D"/>
<path d="M247.754 12.6287C246.288 11.2727 244.489 10.359 242.351 9.89221C241.213 9.63657 239.976 9.51208 238.646 9.51208C237.316 9.51208 236.053 9.6388 234.884 9.89221C232.964 10.3035 231.275 11.0615 229.816 12.1574C227.467 13.9202 226.084 16.2966 225.668 19.2754H230.657C230.868 17.6348 231.689 16.3366 233.122 15.3696C234.558 14.4026 236.356 13.9202 238.521 13.9202C240.971 13.9202 242.864 14.5516 244.194 15.812C245.526 17.0724 246.193 19.1976 246.193 21.505V22.9344H235.273C231.819 22.9344 229.076 23.848 227.039 25.6753C224.999 27.5026 223.981 29.9879 223.981 33.1401C223.981 36.2923 225.018 38.862 227.099 40.7315C229.179 42.6011 232.03 43.5325 235.645 43.5325C238.89 43.5325 241.488 42.7789 243.445 41.2673C245 40.0602 245.938 38.5263 246.255 36.6568V42.9034H251.118V21.3761C251.118 17.846 249.995 14.705 247.752 12.6265L247.754 12.6287ZM243.573 37.4237C241.827 38.8087 239.579 39.5022 236.836 39.5022C234.382 39.5022 232.449 38.9042 231.033 37.7083C229.62 36.5101 228.911 34.9029 228.911 32.8889C228.911 30.9971 229.492 29.5077 230.657 28.4163C231.821 27.3248 233.382 26.7757 235.339 26.7757H246.193V32.0064C246.193 34.2338 245.319 36.0388 243.573 37.4237Z" fill="#21244D"/>
<path d="M280.09 12.7532C278.747 11.3305 277.107 10.3746 275.165 9.89001C274.161 9.63437 273.076 9.50989 271.916 9.50989C270.756 9.50989 269.684 9.6366 268.715 9.89001C267.264 10.2679 266.033 10.9259 265.023 11.8707C263.726 13.0822 262.929 14.645 262.636 16.5656H262.621V10.139H257.689V42.9056H262.621V22.5499C262.621 19.7778 263.325 17.6349 264.739 16.1232C266.152 14.6116 268.087 13.858 270.542 13.858C272.997 13.858 274.787 14.5694 276.16 15.9965C277.532 17.4237 278.219 19.4599 278.219 22.1075V42.9056H283.146V21.5451C283.146 17.8483 282.129 14.9162 280.088 12.7554L280.09 12.7532Z" fill="#21244D"/>
<path d="M0 27.1181C0 32.3309 1.87352 37.2748 5.2573 40.6915C8.64109 44.1082 13.5373 46 18.7 46C23.8626 46 28.7589 44.1082 32.1427 40.6915C35.5264 37.2748 37.4 32.3309 37.4 27.1181V8.19165H29.2872V27.1114C29.2872 30.0635 28.323 32.9578 26.4076 34.8918C24.4923 36.8258 21.6258 37.7994 18.7022 37.7994C15.7785 37.7994 12.9121 36.8258 10.9967 34.8918C9.0814 32.9578 8.11712 30.0635 8.11712 27.1114V8.19165H0.00440069V27.1181H0Z" fill="#21244D"/>
<path d="M96.155 27.1181C96.155 32.3309 98.0286 37.2748 101.412 40.6915C104.796 44.1082 109.692 46 114.855 46C120.018 46 124.914 44.1082 128.298 40.6915C131.681 37.2748 133.555 32.3309 133.555 27.1181V8.19165H125.442V27.1114C125.442 30.0635 124.478 32.9578 122.563 34.8918C120.647 36.8258 117.781 37.7994 114.857 37.7994C111.934 37.7994 109.067 36.8258 107.152 34.8918C105.236 32.9578 104.272 30.0635 104.272 27.1114V8.19165H96.1594V27.1181H96.155Z" fill="#21244D"/>
<path d="M162.725 8.19166C158.016 8.19166 153.446 10.4124 149.772 14.0203V0H141.659V42.85H149.772V31.2617C149.772 19.4888 157.988 16.39 161.123 16.39C166.884 16.39 170.944 19.0398 170.944 29.6078V42.8478H179.057V28.1206C179.057 15.732 171.899 8.18943 162.723 8.18943L162.725 8.19166Z" fill="#21244D"/>
<path d="M89.579 34.6984V42.8479H81.4223C81.4223 36.3923 81.4223 39.5734 81.4223 36.439C81.4223 30.1725 80.8917 22.95 75.4274 17.4326C72.8869 14.8673 68.9197 13.2356 64.259 13.2356C60.6903 13.2356 57.2074 14.7673 55.237 16.7568C52.8836 19.1332 52.091 22.3676 52.091 25.522C52.091 30.0213 53.4251 33.1979 55.3603 35.1497C56.93 36.7347 59.4156 37.8017 61.3001 37.8017C68.7678 37.8017 68.4089 31.2062 68.4089 29.879C68.4089 27.5627 68.3384 26.9425 68.3384 26.9425H76.2728C76.3411 27.685 76.4071 28.6809 76.4071 29.8212C76.4071 34.5606 75.9294 38.1796 72.6821 41.4585C70.2054 43.9594 66.062 46 61.7646 46C57.7005 46 53.0465 44.3995 49.6231 40.9428C46.1798 37.466 43.9783 32.1131 43.9783 25.5198C43.9783 19.4355 46.0896 14.4071 49.4998 10.9638C53.4582 6.96684 59.1029 5.04175 64.259 5.04175C71.3172 5.04175 77.0742 7.48924 81.1449 11.6017C86.9724 17.4837 89.579 26.5379 89.579 34.6984Z" fill="#21244D"/>
</svg>
