<svg width="240" height="32" viewBox="0 0 240 32" fill="none" xmlns="http://www.w3.org/2000/svg">
<path d="M163.204 19.7754C162.641 18.8507 161.865 18.1532 160.878 17.6785C160.368 17.4326 159.815 17.2548 159.222 17.1434C159.715 17.0383 160.173 16.8805 160.597 16.6702C161.49 16.231 162.187 15.6094 162.696 14.8068C163.201 14.0011 163.454 13.0516 163.454 11.949C163.454 10.0129 162.759 8.49432 161.372 7.39173C159.985 6.29223 158.069 5.7417 155.624 5.7417H140.329V29.8472H156.118C157.741 29.8472 159.144 29.5735 160.333 29.023C161.518 28.4709 162.437 27.6854 163.082 26.6601C163.729 25.6379 164.053 24.4425 164.053 23.077C164.053 21.8012 163.772 20.7017 163.206 19.7754H163.204ZM144.031 8.81288H155.624C156.895 8.81288 157.888 9.12835 158.604 9.75465C159.321 10.3825 159.679 11.2346 159.679 12.314C159.679 13.3934 159.316 14.2501 158.588 14.8903C157.858 15.5274 156.859 15.846 155.591 15.846H144.031V8.81288ZM159.045 25.7523C158.246 26.4358 157.164 26.7776 155.801 26.7776H144.031V18.8197H155.801C157.164 18.8197 158.246 19.194 159.045 19.9409C159.844 20.6894 160.244 21.6806 160.244 22.9131C160.244 24.1456 159.844 25.0719 159.045 25.7539V25.7523Z" fill="#3BBDDC"/>
<path d="M231.199 17.2254L239.858 5.7417H235.553L227.925 15.8661H220.985V5.7417H217.29V29.8472H220.985V18.8909H227.973L235.648 29.8472H240L231.199 17.2254Z" fill="#3BBDDC"/>
<path d="M185.815 8.78526C184.716 7.84195 183.367 7.20637 181.763 6.88163C180.91 6.70379 179.982 6.61719 178.985 6.61719C177.987 6.61719 177.039 6.70533 176.163 6.88163C174.723 7.16771 173.456 7.69504 172.362 8.45742C170.6 9.68373 169.563 11.3369 169.251 13.4091H172.992C173.151 12.2678 173.767 11.3647 174.842 10.692C175.918 10.0193 177.267 9.68373 178.89 9.68373C180.728 9.68373 182.148 10.1229 183.145 10.9997C184.144 11.8765 184.645 13.3549 184.645 14.9601V15.9545H176.455C173.864 15.9545 171.807 16.59 170.28 17.8612C168.749 19.1323 167.986 20.8612 167.986 23.0541C167.986 25.2469 168.764 27.0345 170.324 28.3351C171.885 29.6356 174.023 30.2835 176.734 30.2835C179.168 30.2835 181.116 29.7593 182.584 28.7077C183.75 27.868 184.453 26.801 184.691 25.5005V29.8459H188.338V14.8704C188.338 12.4147 187.496 10.2296 185.814 8.78372L185.815 8.78526ZM182.68 26.034C181.37 26.9974 179.685 27.4799 177.627 27.4799C175.786 27.4799 174.337 27.0639 173.275 26.2319C172.215 25.3984 171.683 24.2804 171.683 22.8793C171.683 21.5633 172.119 20.5272 172.992 19.7679C173.866 19.0086 175.037 18.6267 176.505 18.6267H184.645V22.2654C184.645 23.8149 183.989 25.0706 182.68 26.034Z" fill="#3BBDDC"/>
<path d="M210.068 8.8717C209.061 7.88199 207.83 7.21703 206.374 6.87991C205.621 6.70208 204.807 6.61548 203.937 6.61548C203.067 6.61548 202.263 6.70362 201.536 6.87991C200.448 7.14281 199.525 7.60055 198.767 8.25777C197.795 9.10057 197.197 10.1877 196.977 11.5238H196.966V7.05311H193.267V29.8473H196.966V15.6868C196.966 13.7584 197.494 12.2676 198.554 11.2161C199.614 10.1645 201.066 9.64027 202.907 9.64027C204.748 9.64027 206.09 10.1351 207.12 11.1279C208.149 12.1207 208.664 13.5372 208.664 15.379V29.8473H212.36V14.9878C212.36 12.4161 211.597 10.3764 210.066 8.87325L210.068 8.8717Z" fill="#3BBDDC"/>
<path d="M0 18.8647C0 22.491 1.40514 25.9303 3.94298 28.3071C6.48082 30.6839 10.153 31.9999 14.025 31.9999C17.897 31.9999 21.5692 30.6839 24.107 28.3071C26.6448 25.9303 28.05 22.491 28.05 18.8647V5.69849H21.9654V18.86C21.9654 20.9137 21.2422 22.9271 19.8057 24.2725C18.3692 25.6179 16.2194 26.2952 14.0266 26.2952C11.8339 26.2952 9.68408 25.6179 8.24756 24.2725C6.81105 22.9271 6.08784 20.9137 6.08784 18.86V5.69849H0.00330051V18.8647H0Z" fill="#3BBDDC"/>
<path d="M72.1162 18.8647C72.1162 22.491 73.5214 25.9303 76.0592 28.3071C78.597 30.6839 82.2692 31.9999 86.1412 31.9999C90.0132 31.9999 93.6854 30.6839 96.2232 28.3071C98.7611 25.9303 100.166 22.491 100.166 18.8647V5.69849H94.0816V18.86C94.0816 20.9137 93.3584 22.9271 91.9219 24.2725C90.4854 25.6179 88.3356 26.2952 86.1429 26.2952C83.9501 26.2952 81.8003 25.6179 80.3638 24.2725C78.9273 22.9271 78.2041 20.9137 78.2041 18.86V5.69849H72.1195V18.8647H72.1162Z" fill="#3BBDDC"/>
<path d="M122.044 5.69854C118.512 5.69854 115.085 7.24341 112.329 9.75325V0H106.244V29.8087H112.329V21.7473C112.329 13.5574 118.491 11.4017 120.842 11.4017C125.163 11.4017 128.208 13.2451 128.208 20.5967V29.8072H134.293V19.5622C134.293 10.944 128.925 5.697 122.043 5.697L122.044 5.69854Z" fill="#3BBDDC"/>
<path d="M67.1842 24.1381V29.8072H61.0666C61.0666 25.3164 61.0666 27.5294 61.0666 25.3489C61.0666 20.9896 60.6687 15.9653 56.5705 12.1271C54.6651 10.3425 51.6897 9.20742 48.1942 9.20742C45.5176 9.20742 42.9055 10.2729 41.4277 11.6569C39.6626 13.3101 39.0682 15.5601 39.0682 17.7545C39.0682 20.8844 40.0688 23.0942 41.5202 24.452C42.6974 25.5546 44.5616 26.2969 45.975 26.2969C51.5758 26.2969 51.3066 21.7086 51.3066 20.7854C51.3066 19.1741 51.2538 18.7426 51.2538 18.7426H57.2046C57.2558 19.2591 57.3053 19.9519 57.3053 20.7452C57.3053 24.0422 56.947 26.5598 54.5115 28.8407C52.654 30.5804 49.5465 32.0001 46.3234 32.0001C43.2754 32.0001 39.7848 30.8866 37.2172 28.482C34.6348 26.0634 32.9836 22.3396 32.9836 17.7529C32.9836 13.5204 34.5671 10.0224 37.1248 7.62698C40.0936 4.84652 44.3271 3.50732 48.1942 3.50732C53.4878 3.50732 57.8056 5.20993 60.8586 8.0708C65.2292 12.1626 67.1842 18.4612 67.1842 24.1381Z" fill="#3BBDDC"/>
</svg>
