<?xml version="1.0" encoding="UTF-8"?>
<svg xmlns="http://www.w3.org/2000/svg" viewBox="0 0 821.15 775.38">
  <defs>
    <style>
      .cls-1 {
        fill: #3bbddc;
      }

      .cls-1, .cls-2 {
        stroke-width: 0px;
      }

      .cls-2 {
        fill: #21244d;
      }
    </style>
  </defs>
  <g id="fundo">
    <rect class="cls-1" x="-23.96" y="-9.96" width="866.88" height="808.87"/>
  </g>
  <g id="assinaturas">
    <path class="cls-2" d="m207.13,283.56c0,23.45,8.51,45.69,23.88,61.06,15.37,15.37,37.61,23.88,61.06,23.88s45.69-8.51,61.06-23.88c15.37-15.37,23.88-37.61,23.88-61.06v-85.14h-36.85v85.11c0,13.28-4.38,26.3-13.08,35-8.7,8.7-21.72,13.08-35,13.08s-26.3-4.38-35-13.08c-8.7-8.7-13.08-21.72-13.08-35v-85.11s-36.85,0-36.85,0v85.14Z"/>
    <path class="cls-2" d="m206.91,506.19c0,23.45,8.51,45.69,23.88,61.06,15.37,15.37,37.61,23.88,61.06,23.88s45.69-8.51,61.06-23.88c15.37-15.37,23.88-37.61,23.88-61.06v-85.14h-36.85v85.11c0,13.28-4.38,26.3-13.08,35s-21.72,13.08-35,13.08-26.3-4.38-35-13.08-13.08-21.72-13.08-35v-85.11s-36.85,0-36.85,0v85.14Z"/>
    <path class="cls-2" d="m509.29,421.05c-21.39,0-42.15,9.99-58.84,26.22v-63.07h-36.85v192.76h36.85v-52.13c0-52.96,37.32-66.9,51.56-66.9,26.17,0,44.61,11.92,44.61,59.46v59.56s36.85,0,36.85,0v-66.25c0-55.73-32.51-89.66-74.19-89.66Z"/>
    <path class="cls-2" d="m614.02,317.66v36.66h-37.05c0-29.04,0-14.73,0-28.83,0-28.19-2.41-60.68-27.23-85.5-11.54-11.54-29.56-18.88-50.73-18.88-16.21,0-32.03,6.89-40.98,15.84-10.69,10.69-14.29,25.24-14.29,39.43,0,20.24,6.06,34.53,14.85,43.31,7.13,7.13,18.42,11.93,26.98,11.93,33.92,0,32.29-29.67,32.29-35.64,0-10.42-.32-13.21-.32-13.21h36.04c.31,3.34.61,7.82.61,12.95,0,21.32-2.17,37.6-16.92,52.35-11.25,11.25-30.07,20.43-49.59,20.43-18.46,0-39.6-7.2-55.15-22.75-15.64-15.64-25.64-39.72-25.64-69.38,0-27.37,9.59-49.99,25.08-65.48,17.98-17.98,43.62-26.64,67.04-26.64,32.06,0,58.21,11.01,76.7,29.51,26.47,26.46,38.31,67.19,38.31,103.9Z"/>
  </g>
</svg>